<svg xmlns="http://www.w3.org/2000/svg" viewBox="0 0 463.9 72.8">
	<defs>
		<style>
			.cls-1{fill:#343a40;}
		</style>
	</defs>
	<title>
		Asset 1
	</title>
	<g id="Layer_2" data-name="Layer 2">
		<g id="Layer_1-2" data-name="Layer 1">
			<path class="cls-1" d="M21.5,17.1H0L3.2,1.4H65.9L62.7,17.1H41.3L30.4,71.4H10.6Z" />
			<path class="cls-1" d="M106.2,57.8H76.4L68.3,71.4H47.4l44.9-70h19.5l16.9,70H109Zm-3-14.6L98.5,20.5,85.1,43.2Z" />
			<path class="cls-1" d="M201.4,40.25A29,29,0,0,1,187.1,50.4l11.9,21H178.3L167.9,52.8h-10l-3.7,18.6H134.4l14-70h29.9q13.39,0,20.8,5.9t7.4,16.4A27.2,27.2,0,0,1,201.4,40.25Zm-17.8-21.1Q180.71,17,175.5,17H165.1l-4.2,20.5h11.8q6.6,0,10.2-3.1t3.6-8.8A7.51,7.51,0,0,0,183.6,19.15Z" />
			<path class="cls-1" d="M218,70.7a42.58,42.58,0,0,1-12.7-5.4l7.8-14.8a43.21,43.21,0,0,0,11.3,5.15,42.55,42.55,0,0,0,12,1.75q5.7,0,8.85-1.65t3.15-4.55q0-2.51-2.85-3.9a52.42,52.42,0,0,0-8.85-3,93.54,93.54,0,0,1-11.3-3.65A20.21,20.21,0,0,1,217.65,35q-3.26-3.8-3.25-10a21.83,21.83,0,0,1,4.1-13.15A26.22,26.22,0,0,1,230.2,3.1,46.87,46.87,0,0,1,248,0a60.41,60.41,0,0,1,14,1.55A38,38,0,0,1,273.2,6L266,20.7A33.05,33.05,0,0,0,257,16.75,38.38,38.38,0,0,0,246.8,15.4c-3.93,0-7,.63-9.25,1.9s-3.35,2.9-3.35,4.9c0,1.73,1,3.07,2.9,4a53.78,53.78,0,0,0,9,3,86.6,86.6,0,0,1,11.25,3.5A19.73,19.73,0,0,1,265,38.2a14.32,14.32,0,0,1,3.2,9.7A21.45,21.45,0,0,1,264.05,61a26.59,26.59,0,0,1-11.8,8.75,47,47,0,0,1-17.75,3.1A63.22,63.22,0,0,1,218,70.7Z" />
			<polygon class="cls-1" points="338.8 16.7 341.9 1.4 287.1 1.4 273.1 71.4 329.2 71.4 332.4 56.1 295.7 56.1 298.2 43.3 329.4 43.3 332.3 28.5 301.2 28.5 303.5 16.7 338.8 16.7" />
			<path class="cls-1" d="M370.7,16.7l-2.3,11.8h31.1l-2.9,14.8H365.4l-2.5,12.8h36.7l-3.2,15.3H340.3l14-70h54.8L406,16.7Z" />
			<path class="cls-1" d="M421.5,1.4h19.8L430.5,55.7h33.4l-3.2,15.7H407.5Z" />
		</g>
	</g>
</svg>
